<?xml version="1.0" encoding="utf-8"?>
<!-- Generator: Adobe Illustrator 19.2.1, SVG Export Plug-In . SVG Version: 6.00 Build 0)  -->
<svg version="1.1" id="圖層_1" xmlns="http://www.w3.org/2000/svg" xmlns:xlink="http://www.w3.org/1999/xlink" x="0px" y="0px"
	 viewBox="0 0 28.4 28.6" style="enable-background:new 0 0 28.4 28.6;" xml:space="preserve">
<style type="text/css">
	.st0{fill:#2DAD38;}
	.st1{fill:#FFFFFF;}
</style>
<g>
	<path class="st0" d="M23.3,0.2H5.2C2.3,0.2,0,2.5,0,5.3v18.1c0,2.8,2.3,5.2,5.1,5.2h18.1c2.8,0,5.2-2.3,5.2-5.1V5.4
		C28.4,2.5,26.1,0.2,23.3,0.2"/>
	<path class="st1" d="M24.5,13.2c0-4.6-4.6-8.4-10.4-8.4c-5.7,0-10.4,3.8-10.4,8.4c0,4.2,3.7,7.6,8.7,8.3c0.3,0.1,0.8,0.2,0.9,0.5
		c0.1,0.3,0.1,0.7,0,0.9c0,0-0.1,0.7-0.1,0.9c0,0.3-0.2,1,0.9,0.6c1.1-0.5,6-3.5,8.1-6h0C23.8,16.7,24.5,15,24.5,13.2"/>
	<g>
		<path class="st0" d="M12.1,10.9h-0.7c-0.1,0-0.2,0.1-0.2,0.2v4.5c0,0.1,0.1,0.2,0.2,0.2h0.7c0.1,0,0.2-0.1,0.2-0.2v-4.5
			C12.3,11,12.2,10.9,12.1,10.9"/>
		<path class="st0" d="M17.1,10.9h-0.7c-0.1,0-0.2,0.1-0.2,0.2v2.7L14.1,11c0,0,0,0,0,0c0,0,0,0,0,0c0,0,0,0,0,0c0,0,0,0,0,0
			c0,0,0,0,0,0c0,0,0,0,0,0c0,0,0,0,0,0c0,0,0,0,0,0c0,0,0,0,0,0c0,0,0,0,0,0c0,0,0,0,0,0c0,0,0,0,0,0c0,0,0,0,0,0c0,0,0,0,0,0
			c0,0,0,0,0,0c0,0,0,0,0,0c0,0,0,0,0,0c0,0,0,0,0,0c0,0,0,0,0,0h-0.7c-0.1,0-0.2,0.1-0.2,0.2v4.5c0,0.1,0.1,0.2,0.2,0.2h0.7
			c0.1,0,0.2-0.1,0.2-0.2V13l2.1,2.8c0,0,0,0,0.1,0c0,0,0,0,0,0c0,0,0,0,0,0c0,0,0,0,0,0c0,0,0,0,0,0c0,0,0,0,0,0c0,0,0,0,0,0
			c0,0,0,0,0,0c0,0,0,0,0,0c0,0,0,0,0.1,0h0.7c0.1,0,0.2-0.1,0.2-0.2v-4.5C17.3,11,17.2,10.9,17.1,10.9"/>
		<path class="st0" d="M10.3,14.7h-2v-3.6c0-0.1-0.1-0.2-0.2-0.2H7.4c-0.1,0-0.2,0.1-0.2,0.2v4.5v0c0,0.1,0,0.1,0.1,0.1c0,0,0,0,0,0
			c0,0,0,0,0,0c0,0,0.1,0.1,0.1,0.1h0h2.9c0.1,0,0.2-0.1,0.2-0.2v-0.7C10.5,14.8,10.4,14.7,10.3,14.7"/>
		<path class="st0" d="M21.1,12.1c0.1,0,0.2-0.1,0.2-0.2v-0.7c0-0.1-0.1-0.2-0.2-0.2h-2.9h0c-0.1,0-0.1,0-0.1,0.1c0,0,0,0,0,0
			c0,0,0,0,0,0c0,0-0.1,0.1-0.1,0.1v0v4.5v0c0,0.1,0,0.1,0.1,0.1c0,0,0,0,0,0c0,0,0,0,0,0c0,0,0.1,0.1,0.1,0.1h0h2.9
			c0.1,0,0.2-0.1,0.2-0.2v-0.7c0-0.1-0.1-0.2-0.2-0.2h-2v-0.8h2c0.1,0,0.2-0.1,0.2-0.2V13c0-0.1-0.1-0.2-0.2-0.2h-2v-0.8H21.1z"/>
	</g>
</g>
</svg>
